<svg xmlns="http://www.w3.org/2000/svg" width="304.435" height="190.109" viewBox="0 0 304.435 190.109">
  <g id="Group_5241" data-name="Group 5241" transform="translate(-1188.365 -357.318)">
    <path id="download_3_" data-name="download (3)" d="M94.027,10.18,89.208,3.01H85.262V14.764H88.4V7.275l4.9,7.489H97.1V3.01H94.027ZM75.759,9.727l1.679-3.946,1.478,3.946ZM75.44,3.01,70.285,14.764h3.459l.974-2.418h5.474l1.041,2.418h3.543L79.453,3.01ZM65.13,8.971V8.719A2.7,2.7,0,0,1,68.1,5.747h3.543V3.01H67.867a5.407,5.407,0,0,0-5.877,5.709v.252A5.272,5.272,0,0,0,67.7,14.68h1.142l1.276-2.653H68.27a2.72,2.72,0,0,1-3.056-3.056M57.239,3.01V14.764h3.14V3.01Zm-6.28,5.037H47.6V5.663h3.358c.974,0,1.444.571,1.444,1.209S51.933,8,50.959,8m4.584-1.209A3.744,3.744,0,0,0,51.362,3.01H44.646V14.764h3.14v-4.1h1.125l3.492,4.1h3.946L52.487,10.5a3.644,3.644,0,0,0,3.056-3.711M32.607,14.764h9.906V12.111H35.747V10.18h6.6V7.51h-6.6V5.663h6.767V3.01H32.607Zm-9.99-4.349-2.653-7.4h-4.9V14.764h3.056V6.318l3.056,8.446h2.821l3.14-8.446v8.446h3.056V3.01h-4.9l-2.67,7.4ZM5.558,9.727,7.237,5.781,8.781,9.727Zm-.4-6.716L0,14.764H3.459l.974-2.418H9.906l1.041,2.418H14.49L9.252,3.01ZM95.286,24.234H92.348a.94.94,0,1,1,0-1.864h5.239L98.829,19.8H92.348a3.744,3.744,0,0,0-4.181,3.711,3.358,3.358,0,0,0,3.778,3.543h2.9a.974.974,0,1,1,0,1.931H88.6v2.569h6.28a3.711,3.711,0,0,0,4.181-3.778,3.358,3.358,0,0,0-3.778-3.543m-11.518,0H80.88a.94.94,0,1,1,0-1.864H86.1L87.311,19.8H80.88a3.744,3.744,0,0,0-4.2,3.711,3.358,3.358,0,0,0,3.795,3.543h2.888a.974.974,0,1,1,0,1.931h-6.28v2.569h6.28a3.711,3.711,0,0,0,4.2-3.778,3.358,3.358,0,0,0-3.795-3.543M65.416,31.47h9.906V28.817H68.556V26.887h6.6V24.234h-6.6V22.37h6.767V19.717H65.416ZM59.22,24.7H55.862V22.37H59.22c.957,0,1.444.571,1.444,1.209A1.293,1.293,0,0,1,59.22,24.7M63.8,23.512A3.761,3.761,0,0,0,59.623,19.8H52.907V31.554h3.14V27.373h1.041l3.576,4.181h3.862l-3.862-4.265a3.711,3.711,0,0,0,3.14-3.778M46.9,24.956H43.538V22.37H46.9a1.293,1.293,0,0,1,1.461,1.293A1.377,1.377,0,0,1,46.9,24.956m.319-5.155H40.381V31.554h3.14V27.692h3.627a3.9,3.9,0,0,0,4.265-3.946,3.828,3.828,0,0,0-4.2-3.946m-7.4-.084H35.8L32.725,23.26l-3.056-3.543h-4.1l5.155,5.793L25.488,31.47h4.03l3.14-3.694,3.207,3.694h4.114l-5.323-6.028,5.155-5.726ZM15.095,31.47H25V28.817H18.235V26.887h6.6V24.234h-6.6V22.37H25V19.717H15.095V31.47Z" transform="translate(1278.7 512.278)" fill="#6b7c93"/>
    <g id="download_4_" data-name="download (4)" transform="translate(1377.935 436.645)">
      <path id="Path_2397" data-name="Path 2397" d="M5.988,7.222H.7V26.155H5.988a9.413,9.413,0,0,0,6.558-2.115,9.688,9.688,0,0,0,3.385-7.192A9.2,9.2,0,0,0,7.046,7.328Zm4.231,14.173a6.706,6.706,0,0,1-4.865,1.481H4.3V10.4H5.354a6.706,6.706,0,0,1,4.865,1.481,6.558,6.558,0,0,1,1.9,4.654,6.706,6.706,0,0,1-1.9,4.865Zm7.192,4.76h3.6V7.222h-3.6ZM29.681,14.52c-2.115-.846-2.75-1.269-2.75-2.327a2.348,2.348,0,0,1,2.538-2.115,4.442,4.442,0,0,1,2.962,1.481l1.9-2.538A8.461,8.461,0,0,0,29.046,6.9a5.415,5.415,0,0,0-5.712,5.077v.212c0,2.538,1.058,4.019,4.442,5.077a12.946,12.946,0,0,1,2.538,1.058,2.221,2.221,0,0,1,1.058,1.9,2.771,2.771,0,0,1-2.538,2.75h-.212a4.231,4.231,0,0,1-3.808-2.538l-2.327,2.221a7.192,7.192,0,0,0,6.346,3.6,5.965,5.965,0,0,0,6.346-5.712v-.635c-.212-2.538-1.269-3.808-5.5-5.5Zm6.558,2.327a9.667,9.667,0,0,0,9.519,9.731,11.529,11.529,0,0,0,4.654-1.058V21.289A5.521,5.521,0,0,1,46.181,23.4a5.965,5.965,0,0,1-6.135-5.923v-.423A6.346,6.346,0,0,1,45.969,10.5a5.944,5.944,0,0,1,4.442,2.115V8.385a8.123,8.123,0,0,0-4.442-1.058,9.16,9.16,0,0,0-9.731,9.413ZM79.18,20.02,74.315,7.328H70.507l7.827,19.25h1.9L88.065,7.222H84.257L79.18,19.914Zm10.577,6.135H99.911V22.981H93.353V17.9H99.7V14.732H93.353V10.5h6.558V7.222H89.757Zm24.327-13.327c0-3.6-2.327-5.5-6.558-5.5h-5.288V26.155h3.6V18.539h.423l4.865,7.615h4.442l-5.712-7.827a5.14,5.14,0,0,0,4.231-5.5ZM106.892,16h-1.058V10.183h1.058c2.327,0,3.385,1.058,3.385,2.75s-1.058,2.962-3.385,2.962Z" transform="translate(-0.7 -6.896)" fill="#6b7c93"/>
      <path id="Path_2398" data-name="Path 2398" d="M34.531,7A9.71,9.71,0,0,0,24.8,16.731a10.027,10.027,0,0,0,9.731,9.942,9.752,9.752,0,0,0,9.942-9.731A10.069,10.069,0,0,0,34.531,7Z" transform="translate(26.18 -6.78)" fill="#6b7c93" opacity="0.5"/>
    </g>
    <g id="download_5_" data-name="download (5)" transform="translate(1189.17 515.222)">
      <path id="Path_2399" data-name="Path 2399" d="M5.356,2A5.322,5.322,0,0,0,0,7.424V20.983a8.356,8.356,0,0,0,4.525,1.356,2.915,2.915,0,0,0,2.847-2.712V12.17h4.492v7.119c0,2.712-1.508,5.085-6.356,5.085A28.983,28.983,0,0,1,0,23.695V34.2H8.2A5.322,5.322,0,0,0,13.56,28.78V2Z" transform="translate(0.001 -1.999)" fill="#6b7c93"/>
      <path id="Path_2400" data-name="Path 2400" d="M14.593,2A5.492,5.492,0,0,0,9,7.424v6.441c1.356-1.356,3.9-2.2,7.8-2.034a31.627,31.627,0,0,1,4.237.678v2.542A11.542,11.542,0,0,0,16.966,13.7a4.475,4.475,0,0,0-4.746,3.729,4.475,4.475,0,0,0,3.729,4.746H16.8a10.491,10.491,0,0,0,4.068-1.356v2.542a18.407,18.407,0,0,1-4.237.678C12.729,24.2,10.356,23.356,9,22V33.865h8.136a5.356,5.356,0,0,0,5.424-5.424V2Z" transform="translate(6.255 -1.999)" fill="#6b7c93" opacity="0.75"/>
      <path id="Path_2401" data-name="Path 2401" d="M23.492,2A5.39,5.39,0,0,0,18,7.424V12.17h8.475a2.983,2.983,0,0,1,3.085,2.712v.169A2.8,2.8,0,0,1,27,17.933a3.39,3.39,0,0,1,3.254,3.051,3.2,3.2,0,0,1-3.322,3.051H18V34.2h8.068a5.39,5.39,0,0,0,5.492-5.424V2ZM21.39,22.17h3.932a1.932,1.932,0,0,0,1.2-2.2,2.034,2.034,0,0,0-1.2-1.186H21.39Zm4.8-6.78a1.7,1.7,0,0,0-1.2-1.525H21.39v3.051h3.593a1.7,1.7,0,0,0,1.2-1.525Z" transform="translate(12.509 -1.999)" fill="#6b7c93" opacity="0.5"/>
    </g>
    <g id="download_6_" data-name="download (6)" transform="translate(1189 430.222)">
      <path id="Path_2402" data-name="Path 2402" d="M21.44,0H15A15.64,15.64,0,0,0,0,16.242,15.99,15.99,0,0,0,15.7,32.2H21.44A16.41,16.41,0,0,0,37.808,16.242V16.1A16.256,16.256,0,0,0,21.44,0ZM16.12,29.4A13.386,13.386,0,0,1,2.8,16.1,13.386,13.386,0,0,1,16.12,2.8,13.386,13.386,0,0,1,29.407,16.1,13.386,13.386,0,0,1,16.12,29.4Z" transform="translate(0.009 0)" fill="#6b7c93"/>
      <path id="Path_2403" data-name="Path 2403" d="M16.162,5.2V22.982a9.157,9.157,0,0,0,0-17.782ZM5.394,11.781a9.2,9.2,0,0,0,6.581,11.2V5.2a9.213,9.213,0,0,0-6.581,6.581Z" transform="translate(2.053 2.081)" fill="#6b7c93"/>
    </g>
    <g id="download_7_" data-name="download (7)" transform="translate(1283.809 429.222)">
      <path id="Path_2404" data-name="Path 2404" d="M12.335,31.392,18.393,5.3A4.457,4.457,0,0,1,22.471,2H10.511A4.44,4.44,0,0,0,6.433,5.3L.358,31.392a2.547,2.547,0,0,0,2.53,3.3H14.934a2.53,2.53,0,0,1-2.6-3.3Z" transform="translate(-0.243 -1.997)" fill="#6b7c93"/>
      <path id="Path_2405" data-name="Path 2405" d="M21.724,31.392,27.8,5.3A4.388,4.388,0,0,1,31.86,2h-14.4a4.457,4.457,0,0,0-4.078,3.3L7.321,31.392a2.53,2.53,0,0,0,2.512,3.3h14.42a2.53,2.53,0,0,1-2.53-3.3Z" transform="translate(4.771 -1.997)" fill="#6b7c93" opacity="0.75"/>
      <path id="Path_2406" data-name="Path 2406" d="M25.827,2H38.871a2.53,2.53,0,0,1,2.53,3.3L35.326,31.393a4.388,4.388,0,0,1-4.061,3.3H18.221a2.53,2.53,0,0,1-2.53-3.3L21.766,5.305A4.388,4.388,0,0,1,25.827,2Z" transform="translate(10.805 -1.998)" fill="#6b7c93" opacity="0.5"/>
      <path id="Path_2407" data-name="Path 2407" d="M35.349,23.033h-.43l1.6-5.266h.516l.172-.551v.6c0,.379.275.706,1.05.654h.878l.31-1.015h-.31c-.206,0-.293,0-.275-.155v-.6H37.139a20.65,20.65,0,0,0-2.444.138,2.977,2.977,0,0,0-.809.4l.172-.551H32.51l-.327,1.084-1.6,5.335h-.327l-.293,1.015h3.063l-.1.327h1.514l.1-.327h.43Zm-1.927,0H32.2l.361-1.17h1.222Zm.688-2.271a4.715,4.715,0,0,0-.654.12,6.161,6.161,0,0,0-.723.31l.43-1.394h1.222Zm0-1.927a5.988,5.988,0,0,0-.654.327l.4-1.342h1.239L34.8,18.8a3.7,3.7,0,0,0-.706.034Zm2.289.946H38.12l-.241.826H36.106l-.258.895h1.566l-1.187,1.721a.5.5,0,0,1-.241.206.654.654,0,0,1-.327.086h-.482l-.31,1H36.02a1.394,1.394,0,0,0,1.187-.619l.826-1.119.172,1.136a.533.533,0,0,0,.413.413,1.377,1.377,0,0,0,.4.172h.964l.327-1.119h-.224a1.05,1.05,0,0,1-.379,0,.637.637,0,0,1,0-.241L39.531,22h-.912l.327-.379h1.721l.275-.895H39.221l.258-.826H41.2l.31-1.015H36.691ZM21.428,23.222l.413-1.377h1.721l.31-1.032H22.15l.258-.843h1.721l.31-1H20.206l-.293,1h.946l-.258.843H19.69l-.31,1.05h.946l-.637,1.876c0,.241,0,.327.1.43a.4.4,0,0,0,.293.224,1.411,1.411,0,0,0,.447,0h1.91l.344-1.136-.86.12c-.1.069-.516.052-.516-.1Zm.207-6.591-.43.774a1.17,1.17,0,0,1-.258.327.929.929,0,0,1-.379,0h-.224l-.31,1h.757a1.721,1.721,0,0,0,.757-.189.276.276,0,0,0,.293-.138l.258-.224h2.323l.31-1.032H23.011l.293-.568Zm3.442,6.608v-.361l.671-2h2.977a1.5,1.5,0,0,0,.551-.189.912.912,0,0,0,.4-.361,3.011,3.011,0,0,0,.4-.895l.792-2.667h-2.34a7.3,7.3,0,0,0-1.05.224,4.25,4.25,0,0,0-.774.5l.206-.723H25.454l-2.048,6.746a2.805,2.805,0,0,0-.12.568c0,.12.155.241.258.327a.809.809,0,0,0,.465.1h1.91l.344-1.153-1,.086a.241.241,0,0,1-.206-.155Zm1.5-5.438h2.409l-.172.568H27.485a2.65,2.65,0,0,0-1.256.568Zm-.465,1.583h2.375l-.155.482a.671.671,0,0,0-.31,0H25.953ZM28.38,21.45a.327.327,0,0,1,0,.155h-.585v-.551H26.384v2.839a.43.43,0,0,0,.155.413,2.839,2.839,0,0,0,1.239.138h.878l.327-1.067H27.95a.155.155,0,0,1-.1,0s-.086,0-.086-.224v-.723h.809a1.015,1.015,0,0,0,.774-.275.826.826,0,0,0,.258-.482l.138-.637H28.621ZM11.413,6.874a15.314,15.314,0,0,1-1.858,0L8.59,11.245a3.063,3.063,0,0,1-.809,1.841,1.48,1.48,0,0,1-.964.327A.895.895,0,0,1,5.8,12.57v-.206l.12-1.136s.964-3.8,1.119-4.3a12.63,12.63,0,0,1-2.2,0V7.2l-.946,4.2v.361l-.172,1.2a1.583,1.583,0,0,0,.224.878c.43.774,1.721.895,2.409.895a4.818,4.818,0,0,0,2.358-.551,3.442,3.442,0,0,0,1.514-2.375l.1-.413s.981-3.958,1.153-4.474l-.069-.052Zm3.338,3.184a2.633,2.633,0,0,0-1.067.241l-.413.258.138-.447v-.086c-.826.172-1.015.189-1.721.293a21.941,21.941,0,0,1-.6,2.753c-.138.516-.258,1.05-.4,1.583h1.721c.086-.447.086-.551.293-1.445.086-.413.275-1.342.361-1.721a1.119,1.119,0,0,1,.5-.155c.379,0,.327.327.31.465s-.155.929-.293,1.549l-.1.413a5.742,5.742,0,0,1-.189.878H15.1c.12-.688.155-.878.361-1.876l.1-.465c.206-.895.31-1.342.155-1.721a.9.9,0,0,0-.964-.516ZM18.468,11l-.929.155-.895.138a2.05,2.05,0,0,1-.12.843,8.056,8.056,0,0,0-.224,1.153,5.162,5.162,0,0,1-.189.654,6.247,6.247,0,0,0-.206.654h1.79c0-.344,0-.43.1-.6a5.209,5.209,0,0,0,.241-1.084,5.011,5.011,0,0,1,.224-.946c.069-.327.155-.619.224-.929ZM20.7,14.79A2.771,2.771,0,0,0,22.8,14a3.717,3.717,0,0,0,.723-1.532,2,2,0,0,0-.172-1.721,1.962,1.962,0,0,0-1.583-.568,2.891,2.891,0,0,0-1.962.671,3.132,3.132,0,0,0-.878,1.721c-.138.619-.31,1.721.723,2.151a2.856,2.856,0,0,0,1.05.069Zm0-2.271c.172-.757.379-1.411.895-1.411s.43.482.258,1.256a3.82,3.82,0,0,1-.379,1.067.637.637,0,0,1-.5.31s-.379,0-.379-.482a2.943,2.943,0,0,1,.052-.74Zm14.7,0c-.138.6-.31,1.721.706,2.117a1.962,1.962,0,0,0,.912.155,1.583,1.583,0,0,0,.878-.413,1.722,1.722,0,0,0,0,.293h1.721c.12-.688.224-1.342.533-2.65.138-.619.293-1.239.43-1.858-.809.155-1.032.189-1.824.293v.189a1.239,1.239,0,0,0-.568-.482,2.22,2.22,0,0,0-1.876.688,3.2,3.2,0,0,0-.964,1.721Zm1.721,0c.172-.757.379-1.394.895-1.394s.5.327.465.878a.589.589,0,0,1-.086.361,3.083,3.083,0,0,0-.172.688,1.945,1.945,0,0,1-.189.379.9.9,0,0,1-.637.31s-.379,0-.379-.482a2.84,2.84,0,0,1,.052-.654ZM25.4,14.687l.275-1.445c.1-.413.293-1.342.379-1.721a1.119,1.119,0,0,1,.516-.155c.379,0,.327.327.31.465s-.155.929-.293,1.549l-.086.413a5.856,5.856,0,0,1-.206.878H28.1c.12-.688.138-.878.361-1.876l.1-.465c.206-.895.31-1.342.155-1.721a.912.912,0,0,0-.912-.516,2.633,2.633,0,0,0-1.067.241l-.43.224.12-.447v-.086c-.826.172-1.015.189-1.721.293a27.274,27.274,0,0,1-.5,2.719c-.12.516-.258,1.05-.379,1.583a11.664,11.664,0,0,0,1.566.069Zm5.644,0a13.857,13.857,0,0,1,.344-1.635c.017,0,.241-1.032.258-1.067a.585.585,0,0,1,.086-.12h.1a5.3,5.3,0,0,0,3.338-.688,3.442,3.442,0,0,0,1.291-2.031,3.2,3.2,0,0,0,.086-.723,1.48,1.48,0,0,0-.258-.895c-.482-.671-1.445-.688-2.547-.688H30.978c-.224,0,0,.293,0,.293l-.619,2.34-1.273,5.162Zm.946-4.13.533-2.34V7.976h.224l1.136.086a.946.946,0,0,1,.5,1.187,1.721,1.721,0,0,1-.895,1.17,2.684,2.684,0,0,1-1.256.206h-.293Zm14.059-.413a16.924,16.924,0,0,1-1.721.275c-.551,1.273-.533,1-.981,2.013v-.155l-.12-2.185a16.52,16.52,0,0,1-1.721.275v.189a11.066,11.066,0,0,1,.172,1.187l.155,1.153c0,.637.12.964.206,1.945-.533.86-.654,1.2-1.153,1.962l-.361.551a.224.224,0,0,1-.138.12.413.413,0,0,1-.224,0h-.207l-.293.981h1.015a1.256,1.256,0,0,0,1.17-.654l.637-1.084v-.086c.293-.912,3.562-6.5,3.562-6.5Zm-27.533-.4a1.445,1.445,0,0,0-1.445.155c-.447.293-.5.706-.12.929a1.445,1.445,0,0,0,1.445-.155c.379-.31.43-.74.069-.946Z" transform="translate(2.263 1.492)" fill="#fff"/>
    </g>
    <path id="download" d="M30.328,5.139l-4.1,19.013H21.26l4.1-19.013ZM50.949,17.424l2.633-7.166,1.463,7.166Zm5.558,6.728H61.04L57.092,5.139H52.85A2.194,2.194,0,0,0,50.8,6.6L43.49,24.151h5.119l1.024-2.779h6.289Zm-12.87-6.289c0-4.973-6.874-5.265-6.874-7.459A1.931,1.931,0,0,1,38.81,8.8a9.185,9.185,0,0,1,4.826.878l.878-4.1A12.475,12.475,0,0,0,39.98,4.7c-4.826,0-8.336,2.633-8.336,6.289,0,2.779,2.486,4.241,4.241,5.119s2.633,1.463,2.486,2.34c0,1.316-1.463,1.9-2.925,1.9a12.475,12.475,0,0,1-5.119-1.17l-.878,4.1A14.2,14.2,0,0,0,34.861,24.3c5.411.146,8.775-2.486,8.775-6.435M23.308,5.139l-7.9,19.013H10.145L6.2,8.941a1.945,1.945,0,0,0-1.17-1.609A17.053,17.053,0,0,0,.2,5.724l.146-.585H8.683a2.208,2.208,0,0,1,2.194,1.9l2.048,10.969,5.265-12.87Z" transform="translate(1188.165 357.736)" fill="#6b7c93"/>
    <g id="download_1_" data-name="download (1)" transform="translate(1298.905 357.318)">
      <path id="Path_2390" data-name="Path 2390" d="M57.472,11.926a3.261,3.261,0,0,0-2.935,1.467,3.163,3.163,0,0,0-2.772-1.467,2.706,2.706,0,0,0-2.446,1.141v-.978H47.527v7.989H49.32v-4.4a2.054,2.054,0,0,1,2.12-2.12c1.141,0,1.793.815,1.793,2.12v4.4h1.793v-4.4a2.054,2.054,0,0,1,2.12-2.12c1.141,0,1.793.815,1.793,2.12v4.4h1.793V15.187a3.082,3.082,0,0,0-3.261-3.261Zm11.25,1.3a2.951,2.951,0,0,0-2.446-1.141,3.946,3.946,0,0,0-3.913,4.239,4.043,4.043,0,0,0,3.913,4.239,2.951,2.951,0,0,0,2.446-1.141v.652h1.793V12.089H68.722ZM66.44,18.774a2.446,2.446,0,0,1-2.446-2.609,2.446,2.446,0,1,1,4.891,0,2.446,2.446,0,0,1-2.446,2.609ZM76.63,15.35l-.815-.163c-.652-.163-1.3-.326-1.3-.815s.489-.978,1.467-.978a4.891,4.891,0,0,1,2.446.652l.815-1.3a6.424,6.424,0,0,0-3.261-.815c-1.957,0-3.261.978-3.261,2.609,0,1.3.978,2.12,2.609,2.283l.815.163c.978.163,1.3.489,1.3.815,0,.652-.652.978-1.793.978a3.538,3.538,0,0,1-2.609-.815l-.815,1.3a6.147,6.147,0,0,0,3.424.978c2.283,0,3.587-1.141,3.587-2.609s-.9-1.957-2.609-2.283Zm8.8,3.424a1.337,1.337,0,0,1-1.3-1.467V13.883h3.1v-1.63h-3.1V9.807H82.336v2.446h-1.63v1.63h1.63v3.424c0,2.12.978,3.1,2.772,3.1a4.011,4.011,0,0,0,2.446-.815L86.9,18.122a2.935,2.935,0,0,1-1.549.652Zm7.174-6.848A3.864,3.864,0,0,0,88.7,16.165,3.9,3.9,0,0,0,92.771,20.4a4.989,4.989,0,0,0,3.261-1.141l-.815-1.3a3.9,3.9,0,0,1-2.283.815,2.152,2.152,0,0,1-2.283-1.957h5.87v-.652a4.043,4.043,0,0,0-3.995-4.239Zm-2.12,3.587a2.022,2.022,0,0,1,2.12-1.957q1.712,0,1.957,1.957Zm9.619-2.446v-.978H98.315v7.989h1.793v-4.4a1.924,1.924,0,0,1,1.957-2.12,3.065,3.065,0,0,1,1.3.326l.489-1.793a3.261,3.261,0,0,0-1.3-.163,2.576,2.576,0,0,0-2.527,1.141Zm8.152.489a3.016,3.016,0,0,1,1.956.815l1.141-1.141a3.815,3.815,0,0,0-2.935-1.3,4.109,4.109,0,0,0-4.239,4.239,4.027,4.027,0,0,0,4.239,4.239,3.815,3.815,0,0,0,2.935-1.3l-1.141-1.141a2.707,2.707,0,0,1-1.957.815,2.332,2.332,0,0,1-2.283-2.609,2.332,2.332,0,0,1,2.2-2.609Zm10.435-.326a2.951,2.951,0,0,0-2.446-1.141,3.946,3.946,0,0,0-3.913,4.239,4.043,4.043,0,0,0,3.913,4.239,2.951,2.951,0,0,0,2.446-1.141v.652h1.793V12.089h-1.793Zm-2.283,5.543a2.446,2.446,0,0,1-2.446-2.609,2.446,2.446,0,1,1,4.891,0,2.446,2.446,0,0,1-2.527,2.609Zm8.315-5.706v-.978h-1.793v7.989h1.793v-4.4a1.924,1.924,0,0,1,1.956-2.12,3.065,3.065,0,0,1,1.3.326l.489-1.793a3.261,3.261,0,0,0-1.3-.163,2.576,2.576,0,0,0-2.527,1.141Zm10.435-4.891v4.891a2.951,2.951,0,0,0-2.446-1.141,3.946,3.946,0,0,0-3.913,4.239,4.043,4.043,0,0,0,3.913,4.239,2.951,2.951,0,0,0,2.446-1.141v.815h1.793V8.176Zm-2.283,10.6a2.446,2.446,0,0,1-2.446-2.609,2.446,2.446,0,1,1,4.891,0,2.446,2.446,0,0,1-2.527,2.609ZM14.674,16.328a12.2,12.2,0,0,1,4.891-9.783,12.228,12.228,0,1,0,0,19.565,12.147,12.147,0,0,1-4.891-9.783Z" transform="translate(0 -4.1)" fill="#6b7c93"/>
      <path id="Path_2391" data-name="Path 2391" d="M19.337,4.1A12.179,12.179,0,0,0,12,6.562a12.2,12.2,0,0,1,0,19.565,12.081,12.081,0,0,0,7.337,2.462,12.228,12.228,0,1,0,0-24.456Z" transform="translate(7.565 -4.1)" fill="#6b7c93" opacity="0.5"/>
      <path id="Path_2392" data-name="Path 2392" d="M19.413,15.383A12.2,12.2,0,0,0,14.522,5.6C11.554,7.883,8,11.388,8,15.383s3.554,7.549,6.522,9.783a12.147,12.147,0,0,0,4.891-9.783Z" transform="translate(5.043 -3.154)" fill="#6b7c93" opacity="0.75"/>
    </g>
  </g>
</svg>
